<?xml version="1.0" standalone="no"?>
<!DOCTYPE svg PUBLIC "-//W3C//DTD SVG 20010904//EN"
 "http://www.w3.org/TR/2001/REC-SVG-20010904/DTD/svg10.dtd">
<svg version="1.0" xmlns="http://www.w3.org/2000/svg"
 width="332.000000pt" height="332.000000pt" viewBox="0 0 332.000000 332.000000"
 preserveAspectRatio="xMidYMid meet">
<metadata>
Created by potrace 1.11, written by Peter Selinger 2001-2013
</metadata>
<g transform="translate(0.000000,332.000000) scale(0.100000,-0.100000)"
fill="#000000" stroke="none">
<path d="M10 1650 l0 -700 1640 0 1640 0 0 700 0 700 -1640 0 -1640 0 0 -700z
m3270 -5 l0 -685 -1630 0 -1630 0 0 685 0 685 1630 0 1630 0 0 -685z"/>
<path d="M60 1650 l0 -650 1590 0 1590 0 0 650 0 650 -1590 0 -1590 0 0 -650z
m3170 -5 l0 -635 -1580 0 -1580 0 0 635 0 635 1580 0 1580 0 0 -635z"/>
<path d="M688 1915 c-170 -42 -267 -157 -256 -304 11 -155 134 -251 307 -239
72 5 114 23 178 74 95 77 124 225 68 340 -53 108 -171 160 -297 129z m182 -35
c76 -39 120 -123 120 -227 0 -85 -22 -134 -82 -189 -79 -73 -144 -86 -283 -55
-107 24 -175 109 -175 219 0 118 69 209 195 259 51 20 180 16 225 -7z"/>
<path d="M648 1855 c-40 -22 -44 -49 -15 -106 13 -27 21 -49 17 -49 -4 0 -24
7 -43 15 -20 8 -47 15 -60 15 -68 0 -88 -129 -23 -146 15 -3 51 3 87 15 35 11
64 19 67 17 2 -3 -5 -17 -16 -33 -41 -59 -53 -92 -42 -114 10 -17 19 -20 62
-17 48 3 52 5 59 32 5 17 4 47 0 68 -5 21 -7 38 -5 38 2 0 26 -20 54 -45 28
-25 59 -45 70 -45 22 0 45 31 55 72 9 35 -23 68 -67 69 -31 1 -31 2 11 13 51
13 68 43 57 101 -7 38 -41 85 -61 85 -8 0 -33 -27 -56 -60 -24 -33 -44 -59
-45 -57 -1 1 2 26 7 54 13 71 1 93 -49 93 -20 -1 -49 -7 -64 -15z m90 -7 c15
-15 15 -49 1 -122 -7 -33 -17 -55 -23 -53 -17 6 -75 86 -83 115 -11 47 71 94
105 60z m147 -58 c18 -35 20 -94 3 -108 -7 -5 -35 -13 -62 -17 -27 -3 -55 -9
-62 -12 -8 -3 -14 1 -14 9 0 21 92 158 107 158 7 0 19 -13 28 -30z m-260 -99
c36 -17 65 -34 65 -39 0 -12 -113 -52 -145 -52 -46 0 -62 63 -25 100 26 26 28
25 105 -9z m244 -72 c33 -12 38 -29 22 -72 -16 -42 -35 -38 -102 23 l-64 59
56 1 c31 0 70 -5 88 -11z m-143 -81 c5 -42 3 -57 -9 -66 -19 -16 -81 -2 -85
19 -1 8 14 40 34 73 42 66 49 63 60 -26z"/>
<path d="M790 1855 c0 -8 7 -15 15 -15 8 0 15 7 15 15 0 8 -7 15 -15 15 -8 0
-15 -7 -15 -15z"/>
<path d="M540 1775 c0 -8 7 -15 15 -15 8 0 15 7 15 15 0 8 -7 15 -15 15 -8 0
-15 -7 -15 -15z"/>
<path d="M922 1653 c4 -21 33 -25 33 -3 0 8 -8 16 -18 18 -14 3 -18 -1 -15
-15z"/>
<path d="M545 1534 c-12 -13 -13 -19 -4 -30 13 -16 39 -2 39 22 0 21 -17 25
-35 8z m25 -14 c0 -5 -4 -10 -10 -10 -5 0 -10 5 -10 10 0 6 5 10 10 10 6 0 10
-4 10 -10z"/>
<path d="M766 1462 c-8 -13 11 -35 23 -28 16 10 14 36 -3 36 -8 0 -17 -4 -20
-8z"/>
<path d="M1852 1643 l3 -78 100 -1 100 -1 -95 6 -95 6 0 30 0 30 95 6 95 5
-98 2 -98 2 3 28 c3 27 3 27 98 33 l95 5 -103 2 -103 2 3 -77z"/>
<path d="M2142 1638 l1 -83 6 65 6 65 44 -64 43 -63 42 63 41 63 6 -60 6 -59
1 80 2 80 -49 -74 -49 -73 -48 71 c-26 39 -49 71 -50 71 -2 0 -3 -37 -2 -82z"/>
<path d="M2421 1646 c-34 -42 -59 -76 -54 -76 4 0 14 9 21 20 11 17 23 20 94
20 71 0 85 -3 107 -22 19 -18 18 -14 -7 17 -17 22 -47 57 -65 78 l-33 38 -63
-75z m127 -21 c-3 -3 -34 -5 -69 -3 l-63 3 34 38 33 38 36 -35 c19 -19 32 -38
29 -41z"/>
<path d="M2672 1638 l2 -83 3 73 4 72 82 -62 c45 -33 88 -66 95 -71 9 -7 12 9
10 74 l-2 84 -5 -72 -6 -72 -92 70 -93 70 2 -83z"/>
<path d="M1192 1638 l-2 -78 103 2 102 2 -97 3 -97 4 -4 72 -3 72 -2 -77z"/>
<path d="M1411 1662 c-1 -45 3 -57 25 -79 23 -23 31 -25 85 -21 37 3 66 11 76
21 20 19 32 127 14 127 -7 0 -11 -22 -11 -60 0 -56 -2 -61 -26 -70 -37 -14
-107 -12 -129 4 -14 10 -21 31 -26 73 l-6 58 -2 -53z"/>
<path d="M1640 1706 c0 -2 18 -16 40 -31 22 -15 40 -31 40 -35 0 -4 -18 -20
-40 -35 -22 -15 -38 -30 -36 -33 3 -2 23 10 44 27 22 17 43 31 47 31 4 0 25
-14 47 -31 21 -17 41 -29 44 -27 2 3 -14 18 -36 33 -22 15 -40 31 -40 35 0 4
18 20 40 35 22 15 38 30 36 33 -3 2 -23 -10 -44 -27 -22 -17 -43 -31 -47 -31
-4 0 -24 14 -45 30 -35 28 -50 36 -50 26z"/>
<path d="M2643 1640 c0 -41 2 -58 4 -37 2 20 2 54 0 75 -2 20 -4 3 -4 -38z"/>
</g>
</svg>
